# xmcd
#
# Track frame offsets: 
#        150
#        12329
#        26858
#        40842
#        54929
#        68730
#        78619
#        91863
#        106047
#        117095
#        128598
#        139031
#        148536
#        161140
#        173480
#        186275
#        197817
#        209771
#        228434
#        245668
#        259834
#        279490
#        291738
#        304786
#        317798
#
# Disc length: 4438 seconds
#
# Revision: 0
# Processed by: cddbd v1.5.2PL0 Copyright (c) Steve Scherf et al.
# Submitted via: ExactAudioCopy v0.95a5
#
DISCID=6f115419
DTITLE=T-Bone Walker - You're My Best Poker Hand - Vol.3
DYEAR=2011
DGENRE=Blues
TTITLE0=Tell Me What's The Reason
TTITLE1=Cold, Cold Feeling
TTITLE2=Get These Blues Off Me 
TTITLE3=Street Walkin' Woman
TTITLE4=Here In The Dark
TTITLE5=Party Girl
TTITLE6=Love Is Just A Gamble
TTITLE7=I'm Still In Love With You
TTITLE8=Vida Lee
TTITLE9=When The Sun Goes Down
TTITLE10=I'll Always Be In Love With You
TTITLE11=Teen Age Baby
TTITLE12=Papa Ain't Salty
TTITLE13=Why Not?
TTITLE14=T-Bone Shuffle
TTITLE15=Play On Little Girl
TTITLE16=T-Bone Blues Special
TTITLE17=Mean Old World [1956]
TTITLE18=T-Bone Blues [1956] 
TTITLE19=Stormy Monday Blues [1956]
TTITLE20=Blues For Marili
TTITLE21=Evenin' 
TTITLE22=Blues Rock
TTITLE23=Two Bones And A Pick
TTITLE24=Shufflin' The Blues
EXTD=
EXTT0=
EXTT1=
EXTT2=
EXTT3=
EXTT4=
EXTT5=
EXTT6=
EXTT7=
EXTT8=
EXTT9=
EXTT10=
EXTT11=
EXTT12=
EXTT13=
EXTT14=
EXTT15=
EXTT16=
EXTT17=
EXTT18=
EXTT19=
EXTT20=
EXTT21=
EXTT22=
EXTT23=
EXTT24=
PLAYORDER=
